<?xml version="1.0" encoding="utf-8"?>
<!-- Generator: Adobe Illustrator 24.1.2, SVG Export Plug-In . SVG Version: 6.00 Build 0)  -->
<svg version="1.1" xmlns="http://www.w3.org/2000/svg" xmlns:xlink="http://www.w3.org/1999/xlink" x="0px" y="0px"
	 viewBox="0 0 422 617" style="enable-background:new 0 0 422 617;" xml:space="preserve">
<style type="text/css">
	.st0{display:none;}
	.st1{display:inline;}
	.st2{fill:#9FF6FF;}
	.st3{fill:#ADD8E6;}
	.st4{fill:#D9FFEB;}
	.st5{fill:#FEE1FF;}
	.st6{fill:#B8F5FF;}
	.st7{display:inline;fill:#98FB98;}
	.st8{display:inline;fill:#FDFFCA;}
	.st9{fill:#FFFFE0;}
	.st10{fill:#ABFFE9;}
</style>
<g id="Layer_1" class="st0">
	<g id="Layer_1_1_">
		<g class="st1">
			<polygon class="st2" points="422,618 1,618 1,137.3 1,10 422,10 			"/>
		</g>
	</g>
	<g id="Layer_2_1_" class="st1">
		<rect class="st3" width="422" height="617"/>
		<path class="st4" d="M422,164.1c0,0-83.2-35.1-136.6-36.1c-81.7,1-143.2,41.1-199.6,39.1S-3,123-3,123l1,542l424-0.5V164.1z"/>
		<path class="st5" d="M422,302c0,0-41.6,101.5-139,102.5s-284-92-284-92v350l422-0.5L422,302z"/>
		<path class="st6" d="M421,617c0,0-44.7,11.5-79.8-9.5s-76.3-105-164.6-107S-1,591.5-1,591.5v71l422-0.5V617z"/>
	</g>
</g>
<g id="Layer_2" class="st0">
	<rect class="st7" width="422" height="617"/>
	<path class="st8" d="M422,299.9c0,0-83.2-25.6-136.6-26.3c-81.7,0.7-143.2,30-199.6,28.5S-3,269.9-3,269.9L-2,665l424-0.4V299.9z"
		/>
</g>
<g id="Layer_3">
	<rect class="st9" width="422" height="617"/>
	<path class="st10" d="M-3,664.6l424,0.4l1-395.1c0,0-32.4,30.7-88.8,32.1s-117.9-27.8-199.6-28.5C80.2,274.3-3,299.9-3,299.9V664.6
		z"/>
</g>
</svg>
