<?xml version="1.0" encoding="utf-8"?>
<!-- Generator: Adobe Illustrator 24.1.2, SVG Export Plug-In . SVG Version: 6.00 Build 0)  -->
<svg version="1.1" xmlns="http://www.w3.org/2000/svg" xmlns:xlink="http://www.w3.org/1999/xlink" x="0px" y="0px"
	 viewBox="0 0 422 617" style="enable-background:new 0 0 422 617;" xml:space="preserve">
<style type="text/css">
	.st0{display:none;}
	.st1{display:inline;}
	.st2{fill:#9FF6FF;}
	.st3{fill:#ADD8E6;}
	.st4{fill:#D9FFEB;}
	.st5{fill:#FEE1FF;}
	.st6{fill:#B8F5FF;}
</style>
<g id="Layer_1" class="st0">
	<g class="st1">
		<polygon class="st2" points="422,618 1,618 1,137.3 1,10 422,10 		"/>
	</g>
</g>
<g id="Layer_2">
	<rect class="st3" width="422" height="617"/>
	<path class="st4" d="M422,164.1c0,0-83.2-35.1-136.6-36.1c-81.7,1-143.2,41.1-199.6,39.1S-3,123-3,123l1,542l424-0.5V164.1z"/>
	<path class="st5" d="M422,302c0,0-41.6,101.5-139,102.5s-284-92-284-92v350l422-0.5L422,302z"/>
	<path class="st6" d="M421,617c0,0-44.7,11.5-79.8-9.5s-76.3-105-164.6-107S-1,591.5-1,591.5v71l422-0.5V617z"/>
</g>
</svg>
