<?xml version="1.0" encoding="utf-8"?>
<!-- Generator: Adobe Illustrator 24.1.2, SVG Export Plug-In . SVG Version: 6.00 Build 0)  -->
<svg version="1.1" xmlns="http://www.w3.org/2000/svg" xmlns:xlink="http://www.w3.org/1999/xlink" x="0px" y="0px"
	 viewBox="0 0 88.1 88.1" style="enable-background:new 0 0 88.1 88.1;" xml:space="preserve">
<style type="text/css">
	.st0{display:none;}
	.st1{display:inline;}
	.st2{fill:none;stroke:#EAE816;stroke-miterlimit:10;}
	.st3{display:inline;fill:none;stroke:#EAE816;stroke-miterlimit:10;}
	.st4{display:inline;fill:#89D2DB;}
	.st5{fill:#FFFFFF;}
	.st6{fill:#89D2DB;}
</style>
<g id="Layer_1" class="st0">
	<g class="st1">
		<path d="M57.9,15.9h12.5l31.2,81.8H90.1l-7.5-20.9h-37l-7.5,20.9H26.6L57.9,15.9z M64.1,26.6l-15,40.8h30L64.1,26.6z"/>
	</g>
	<g class="st1">
		<path d="M130.6,23.4v11.3c-3.6-3.4-7.4-5.9-11.5-7.5c-4-1.7-8.4-2.5-12.9-2.5c-9,0-15.9,2.8-20.7,8.3c-4.8,5.5-7.2,13.5-7.2,23.9
			c0,10.3,2.4,18.3,7.2,23.8c4.8,5.5,11.7,8.3,20.7,8.3c4.6,0,8.9-0.8,12.9-2.5c4-1.7,7.9-4.2,11.5-7.5v11.2
			c-3.7,2.5-7.7,4.4-11.8,5.7c-4.2,1.3-8.5,1.9-13.2,1.9c-12,0-21.4-3.7-28.2-11C70.5,79.4,67,69.4,67,56.8c0-12.7,3.4-22.7,10.3-30
			c6.9-7.3,16.3-11,28.2-11c4.7,0,9.1,0.6,13.3,1.9C123,19.1,126.9,20.9,130.6,23.4z"/>
	</g>
</g>
<g id="Layer_2" class="st0">
	<g class="st1">
		<path class="st2" d="M134.6,23.4v11.2c-3.6-3.4-7.4-5.9-11.4-7.5c-4-1.6-8.3-2.5-12.9-2.5c-9,0-15.8,2.7-20.6,8.2
			c-4.8,5.5-7.1,13.4-7.1,23.8c0,10.3,2.4,18.2,7.1,23.7c4.8,5.5,11.6,8.2,20.6,8.2c4.6,0,8.8-0.8,12.9-2.5c4-1.6,7.8-4.1,11.4-7.5
			v11.1c-3.7,2.5-7.6,4.4-11.8,5.7c-4.1,1.3-8.5,1.9-13.1,1.9c-11.9,0-21.3-3.6-28.1-10.9c-6.8-7.3-10.2-17.2-10.2-29.7
			c0-12.6,3.4-22.5,10.2-29.8c6.8-7.3,16.2-10.9,28.1-10.9c4.7,0,9.1,0.6,13.2,1.9C127,19,130.9,20.9,134.6,23.4z"/>
	</g>
	<polyline class="st3" points="71.6,67.4 49.3,67.4 64.1,26.6 71.7,47 	"/>
	<polyline class="st3" points="76.9,33 70.4,15.9 57.9,15.9 26.6,97.7 38.3,97.7 45.7,77.2 75.2,76.7 	"/>
</g>
<g id="Layer_3" class="st0">
	<g class="st1">
		<path d="M57.9,15.9h12.5l31.2,81.8H90.1l-7.5-20.9h-37l-7.5,20.9H26.6L57.9,15.9z M64.1,26.6l-15,40.8h30L64.1,26.6z"/>
	</g>
	<g class="st1">
		<path d="M75.4,29.1c0.6-0.8,1.2-1.5,1.9-2.2c6.9-7.3,16.3-11,28.2-11c4.7,0,9.1,0.6,13.3,1.9c4.2,1.3,8.1,3.1,11.7,5.6v11.3
			c-3.6-3.4-7.4-5.9-11.5-7.5c-4-1.7-8.4-2.5-12.9-2.5c-9,0-15.9,2.8-20.7,8.3c-2.2,2.5-3.9,5.6-5.1,9.2 M67,56.8 M77.3,86.7
			 M97.9,88c2.5,0.6,5.3,0.9,8.2,0.9c4.6,0,8.9-0.8,12.9-2.5c4-1.7,7.9-4.2,11.5-7.5v11.2c-3.7,2.5-7.7,4.4-11.8,5.7
			c-4.2,1.3-8.5,1.9-13.2,1.9c-1.3,0-2.6,0-3.9-0.1 M85.5,80.6 M78.3,56.8"/>
	</g>
</g>
<g id="Layer_4" class="st0">
</g>
<g id="Layer_5" class="st0">
	<circle class="st4" cx="44" cy="44" r="44"/>
	<g class="st1">
		<path class="st5" d="M-23.7-56.6l16.8,44.3c0,0.5-0.1,0.9-0.3,1.2c-0.2,0.2-0.7,0.3-1.4,0.3h-2.1c-0.3-0.1-0.6-0.4-0.8-0.7
			l-3.7-9.7h-19.4l-3.9,9.9c-0.3,0.4-0.8,0.6-1.5,0.6c-0.2,0-0.5,0-0.9,0c-0.5,0-0.9,0-1.2,0c-0.6-0.1-0.9-0.5-0.9-1.3
			c0-0.2,0-0.4,0.1-0.5l16.9-44.2c0.3-0.4,0.6-0.6,1-0.6C-24.4-57.4-24-57.2-23.7-56.6z M-32.7-26h15.6l-7.8-20.1L-32.7-26z"/>
	</g>
	<g class="st1">
		<path class="st5" d="M-19.5-34.3c0.5,0.4,0.9,0.8,1.3,1.4c0.2,0.4,0.4,0.8,0.7,1.1v-7.2l1.6-5.9l3.3-6l2.9-1.8h6.4l3,1.8L1.4-49
			L3-45c0.1,0.4,0.3,0.6,0.6,0.6c0.3,0,0.6,0.1,1,0.1c0.4,0,0.6,0.1,0.7,0.1c0.6,0,1-0.2,1.3-0.6c0.1-0.2,0.2-0.6,0.2-1.1L5-50.5
			L1.3-55l-3.9-2.4l-7.4-0.1l-0.3,0.1l-3.6,2.2l-3.9,4.6l-1.8,4.2l-1.6,5.5c0,0,0,0.1,0,0.1C-20.3-38.7-19.9-36.5-19.5-34.3z"/>
		<path class="st5" d="M6.1-23.9H5.2c-0.4,0-0.6-0.1-0.7-0.1c-0.6,0-1,0.2-1.3,0.5l-1.7,4.1l-1.5,1.9l-3.1,1.9h-6.3l-3-1.8l-1-1.8
			c0.1,0.5,0.2,0.9,0.3,1.4c0.9,2,1.7,3.9,2.2,6c0.2,0.2,0.4,0.5,0.6,0.7l0.2,0.1l7.6,0.1L1-13l3.9-4.6l1.7-4.2
			c0.1-0.3,0.2-0.6,0.2-0.8C6.8-23.2,6.6-23.6,6.1-23.9z"/>
	</g>
	<g class="st1">
		<path d="M38,21.9c0.1,0,0.9,2.1,2.5,6.3l14.9,36.6l-0.1,0h-6.1c-0.1,0-0.4-0.7-0.8-2l-3-7.3H25l-3.7,9.2h-6.1v0l14.8-36.6l2.6-6.3
			H38z M27.4,49.9h15.7l-7.8-19.3c-0.1,0-1.1,2.6-3.2,7.9L27.4,49.9z"/>
	</g>
	<g class="st1">
		<path d="M40,38.9c0.4,1.7,0.9,3.4,1.4,5.2c0-0.2,0-0.4,0-0.5v-0.3c0-4.1,1.3-7.9,3.8-11.3C48.5,28,52.3,26,56.7,26h0.2
			c4.2,0,8,1.8,11.2,5.5c0.8,1.1,1.5,2.1,2,3c0.1,0,1.3-0.6,3.6-1.8c-0.4-1.1-1.5-2.7-3.3-4.8c-4-4-8.5-6.1-13.4-6.1h-0.4
			c-4.9,0-9.3,1.9-13.2,5.8c-2.4,2.6-4.1,5.4-5.1,8.5C39.1,36.8,39.7,37.7,40,38.9z"/>
		<path d="M70.2,52c-0.5,0.9-1.1,1.9-1.9,3c-3.3,3.8-7.1,5.7-11.4,5.7c-3.9,0-7.5-1.5-10.5-4.6c-0.3-0.4-0.6-0.7-0.9-1.1
			c1.4,3.1,3.7,6,5.7,8.9c1.8,0.6,3.7,0.9,5.6,0.9c5,0,9.5-1.9,13.5-5.8c1.9-2.2,3.1-3.9,3.5-5.1L70.2,52z"/>
	</g>
</g>
<g id="Layer_6">
	<g>
		<path class="st6" d="M32,38.5l-4.7,11.4h15.7l-7.8-19.3C35.2,30.6,34.1,33.2,32,38.5z"/>
		<path class="st6" d="M44,0C19.7,0,0,19.7,0,44c0,24.3,19.7,44,44,44c24.3,0,44-19.7,44-44C88.1,19.7,68.4,0,44,0z M70.2,59
			c-3.9,3.9-8.4,5.8-13.5,5.8c-0.5,0-0.9,0-1.4-0.1l0,0l-0.1,0h-6.1c-0.1,0-0.4-0.7-0.8-2l-3-7.3H25l-3.7,9.2h-6.1v0l14.8-36.6
			l2.6-6.3H38c0.1,0,0.9,2.1,2.5,6.3l0.9,2.1c0.6-0.9,1.3-1.8,2.1-2.6c3.9-3.9,8.3-5.8,13.2-5.8H57c5,0,9.4,2,13.4,6.1
			c1.8,2.1,2.9,3.7,3.3,4.8c-2.3,1.2-3.6,1.8-3.6,1.8c-0.5-1-1.2-2-2-3c-3.3-3.7-7-5.5-11.2-5.5h-0.2c-4.4,0-8.3,2-11.5,5.9
			c-0.8,1-1.4,2.1-1.9,3.1l10.3,25.2c1.1,0.3,2.2,0.4,3.3,0.4c4.3,0,8.1-1.9,11.4-5.7c0.8-1.1,1.4-2.1,1.9-3l3.6,1.9
			C73.3,55.1,72.2,56.8,70.2,59z"/>
	</g>
</g>
</svg>
