<?xml version="1.0" encoding="utf-8"?>
<!-- Generator: Adobe Illustrator 24.1.2, SVG Export Plug-In . SVG Version: 6.00 Build 0)  -->
<svg version="1.1" xmlns="http://www.w3.org/2000/svg" xmlns:xlink="http://www.w3.org/1999/xlink" x="0px" y="0px"
	 viewBox="0 0 720 720" style="enable-background:new 0 0 720 720;" xml:space="preserve">
<style type="text/css">
	.st0{opacity:0.58;}
	.st1{fill:#FFFFFF;}
	.st2{fill:#373737;}
</style>
<g id="Layer_2">
	<g class="st0">
		<circle class="st1" cx="359.5" cy="332.5" r="113.5"/>
	</g>
</g>
<g id="Layer_1">
	<g>
		<g>
			<path class="st2" d="M359.5,232c55.4,0,100.5,45.1,100.5,100.5S414.9,433,359.5,433S259,387.9,259,332.5S304.1,232,359.5,232
				 M359.5,219C296.8,219,246,269.8,246,332.5S296.8,446,359.5,446S473,395.2,473,332.5S422.2,219,359.5,219L359.5,219z"/>
		</g>
	</g>
	<g>
		<path class="st2" d="M412.1,325.2l-76.8-44.3c-5.3-3-11.8,0.8-11.8,6.8v88.7c0,6.1,6.6,9.9,11.8,6.8l76.8-44.3
			C417.4,335.8,417.4,328.2,412.1,325.2z"/>
	</g>
</g>
</svg>
